<?xml version="1.0" standalone="no"?><!DOCTYPE svg PUBLIC "-//W3C//DTD SVG 1.1//EN" "http://www.w3.org/Graphics/SVG/1.1/DTD/svg11.dtd"><svg t="1492291199614" class="icon" style="" viewBox="0 0 1024 1024" version="1.1" xmlns="http://www.w3.org/2000/svg" p-id="1250" xmlns:xlink="http://www.w3.org/1999/xlink" width="64" height="64"><defs><style type="text/css"></style></defs><path d="M925.257949 1.467696h-97.748533a21.270298 21.270298 0 0 0-21.089659 21.089658c0 11.515766 9.573892 21.112238 21.089659 21.112238h76.658875v201.864609h-51.730628c-12.125424 0-21.112238 9.619052-21.112239 21.112238s9.596472 21.089658 21.112239 21.089658h51.730628v201.909768h-51.730628c-12.125424 0-21.112238 9.573892-21.112239 21.089659s9.596472 21.067078 21.112239 21.067078h51.730628v204.506461h-51.730628a20.863859 20.863859 0 0 0-21.112239 21.067078c0 12.125424 9.596472 21.089658 21.112239 21.089658h51.730628v201.909769h-76.658875a21.270298 21.270298 0 0 0-21.089659 21.112238c0 11.493186 9.573892 21.067078 21.089659 21.067078h97.748533a20.841279 20.841279 0 0 0 21.089658-21.067078V22.557354a21.315458 21.315458 0 0 0-21.089658-21.089658zM579.581742 326.054245a169.010805 169.010805 0 0 0-124.618655-55.614377h-94.564763a167.926968 167.926968 0 0 0-124.596075 55.614377L83.094157 494.748931c-7.677178 8.286836-7.044939 21.089658 0.632238 29.399073L135.479603 575.878633a21.338037 21.338037 0 0 0 15.986593 6.390121c5.757883 0 11.515766-2.551533 15.354355-7.044939l109.2643-125.228313v552.056802c0 11.493186 9.573892 21.089658 21.089658 21.089659h74.107343c11.515766 0 21.089658-9.596472 21.089658-21.089659V680.672106h30.663551v321.402778c0 11.493186 9.596472 21.089658 21.112238 21.089658h74.107343c11.515766 0 21.089658-9.596472 21.089658-21.089658V450.018082l109.2643 125.228313c3.838589 4.470827 9.596472 7.044939 15.331775 7.044939 5.780463 0.632238 11.538346-1.941874 15.986593-6.390121l51.753208-51.730629a21.044498 21.044498 0 0 0 0.654818-29.399074l-152.753252-168.717265z m86.210187 204.461301l-131.618434-150.788798a21.834796 21.834796 0 0 0-23.641191-5.780464 21.405777 21.405777 0 0 0-14.044719 19.802602v587.21376H465.824035V659.582448a21.292878 21.292878 0 0 0-21.067078-21.089659h-73.497685a21.247718 21.247718 0 0 0-21.067078 21.089659v321.380198h-30.66355V393.748886a21.383197 21.383197 0 0 0-14.089879-19.802602 21.789636 21.789636 0 0 0-23.641191 5.780464l-131.618434 150.788798-21.721896-21.721897 139.273032-153.972569a125.770232 125.770232 0 0 1 93.300286-41.524498h94.564763c35.134377 0 69.613936 15.309195 93.255127 41.524498l138.685954 153.972569-21.744477 21.721897zM407.680706 239.798897a119.718809 119.718809 0 0 0 119.49301-119.493009A119.696229 119.696229 0 0 0 407.680706 0.835458a119.673649 119.673649 0 0 0-119.47043 119.47043 119.31237 119.31237 0 0 0 119.47043 119.493009z m0-195.519647a76.907255 76.907255 0 0 1 76.681455 76.681456 76.907255 76.907255 0 0 1-76.681455 76.681455 76.907255 76.907255 0 0 1-76.681456-76.681455 76.907255 76.907255 0 0 1 76.681456-76.681456z" p-id="1251" fill="#ffffff"></path></svg>