<?xml version="1.0" standalone="no"?><!DOCTYPE svg PUBLIC "-//W3C//DTD SVG 1.1//EN" "http://www.w3.org/Graphics/SVG/1.1/DTD/svg11.dtd"><svg t="1492291830867" class="icon" style="" viewBox="0 0 1024 1024" version="1.1" xmlns="http://www.w3.org/2000/svg" p-id="3041" xmlns:xlink="http://www.w3.org/1999/xlink" width="64" height="64"><defs><style type="text/css"></style></defs><path d="M448 576l-128 0 0-128-128 0 0 128-63.552 0c-35.584 0-64.448 28.864-64.448 63.424l0 256.576-64 0 0 128 1024 0 0-128-64 0 0-256.576c0-35.008-28.8-63.424-64.448-63.424l-63.552 0 0-192-128 0 0 192-128 0 0-256-128 0 0 256zM192 896l0-192 640 0 0 192-640 0zM256 384c35.36 0 64-28.64 64-64s-64.032-128-64.032-128c0 0-64 92.64-64 128s28.64 64 64 64zM512 256c35.36 0 64-28.64 64-64s-64.032-128-64.032-128c0 0-63.968 92.64-63.968 128s28.64 64 64 64zM768 320c35.36 0 64-28.64 64-64s-64-128-64-128c0 0-64 92.64-64 128s28.64 64 64 64z" p-id="3042" fill="#ffffff"></path></svg>