<?xml version="1.0" standalone="no"?><!DOCTYPE svg PUBLIC "-//W3C//DTD SVG 1.1//EN" "http://www.w3.org/Graphics/SVG/1.1/DTD/svg11.dtd"><svg t="1492291857374" class="icon" style="" viewBox="0 0 1024 1024" version="1.1" xmlns="http://www.w3.org/2000/svg" p-id="3743" xmlns:xlink="http://www.w3.org/1999/xlink" width="64" height="64"><defs><style type="text/css"></style></defs><path d="M552.96 261.12l0-43.52c0-20.992-19.456-38.912-40.448-38.912l0 0C491.52 179.2 471.04 196.608 471.04 218.112l0 43.52C153.6 286.72 103.424 604.16 103.424 604.16l815.616 0C919.04 604.16 875.52 283.648 552.96 261.12zM784.896 560.128c0 0-36.864-11.264-53.76-17.408-3.072-24.064-14.336-98.304-76.8-155.136-41.984-38.4-101.376-52.736-101.376-52.736l0-12.8c0 0 100.352-2.048 167.936 71.168S784.896 560.128 784.896 560.128z" p-id="3744" fill="#ffffff"></path><path d="M974.336 640 52.736 640c0 0-15.36 4.096-10.752 18.944 4.608 15.36 67.072 54.272 82.432 55.808 19.968-0.512 774.144-0.512 774.144-0.512s59.392-22.528 77.312-50.176C988.672 642.048 974.336 640 974.336 640z" p-id="3745" fill="#ffffff"></path></svg>