<?xml version="1.0" standalone="no"?><!DOCTYPE svg PUBLIC "-//W3C//DTD SVG 1.1//EN" "http://www.w3.org/Graphics/SVG/1.1/DTD/svg11.dtd"><svg t="1492291768744" class="icon" style="" viewBox="0 0 1024 1024" version="1.1" xmlns="http://www.w3.org/2000/svg" p-id="2472" xmlns:xlink="http://www.w3.org/1999/xlink" width="64" height="64"><defs><style type="text/css"></style></defs><path d="M512 14.131c-274.913 0-497.869 222.894-497.869 497.88 0 274.861 222.956 497.868 497.88 497.868 274.923 0 497.878-223.007 497.878-497.869C1009.88 237.025 786.934 14.131 512 14.131z m24.904 232.54c0.819-38.88 24.883-69.908 53.893-69.17 28.938 0.726 51.743 32.86 50.985 71.669-0.768 39.014-24.904 69.908-53.883 69.294-29.01-0.737-51.784-32.778-50.995-71.793z m-93.205-45.424c21.525-9.237 47.708 7.25 58.553 36.823 10.844 29.45 2.18 60.897-19.231 70.236-21.473 9.226-47.657-7.383-58.553-36.844-10.844-29.562-2.293-60.989 19.231-70.215z m-99.87 75.725c15.431-11.09 38.522-3.011 51.599 18.257 13.015 21.156 11.151 47.401-4.301 58.502-15.4 11.202-38.543 3.01-51.6-18.258-13.025-21.166-11.12-47.514 4.301-58.501z m-34.407 212.736c-5.847 12.963-23.06 17.1-38.38 9.01-15.339-8.079-23.111-25.2-17.213-38.369 5.868-12.974 23.091-17.1 38.38-9.021 15.36 8.09 23.142 25.21 17.213 38.38z m27.023-78.101c-9.277 12.646-28.794 12.646-43.612-0.113-14.837-12.656-19.394-33.28-10.168-45.946 9.277-12.657 28.785-12.657 43.602 0.204 14.858 12.657 19.405 33.188 10.178 45.855zM771.41 776.724c-4.495 38.37-45.527 65.342-86.026 69.479-40.459 4.362-179.292-57.774-234.978-110.152-55.818-52.183-98.242-134.01-105.082-218.235-6.851-84.234 41.021-138.475 101.14-169.605 60.16-31.007 139.13-0.819 166.892 42.015 27.79 42.731 2.539 91.7-2.171 151.429-4.588 59.75 52.48 112.66 100.935 140.247 48.722 27.177 63.775 56.648 59.29 94.822z" fill="#ffffff" p-id="2473"></path></svg>